<?xml version="1.0" encoding="utf-8"?>
<!-- Generator: Adobe Illustrator 21.0.0, SVG Export Plug-In . SVG Version: 6.00 Build 0)  -->
<svg version="1.1" id="Ebene_1" xmlns="http://www.w3.org/2000/svg" xmlns:xlink="http://www.w3.org/1999/xlink" x="0px" y="0px"
	 viewBox="0 0 356.5 119" style="enable-background:new 0 0 356.5 119;" xml:space="preserve">
<style type="text/css">
	.st0{fill:#00CD41;}
	.st1{fill:#80FBAB;}
	.st2{fill:#FE80B2;}
	.st3{fill:#A50065;}
	.st4{fill:#FFE980;}
	.st5{fill:#FF9500;}
	.st6{fill:#00F858;}
	.st7{fill:#4DFA8A;}
	.st8{fill:#FFE14D;}
	.st9{fill:#FFD400;}
	.st10{fill:#FE4D93;}
	.st11{fill:#FD0065;}
	.st12{fill:#000000;}
</style>
<g>
	<path class="st0" d="M6.6,31.9l23.2,13.4l0-26.8C29.8,18.5,6.6,31.9,6.6,31.9z"/>
	<path class="st1" d="M29.8,45.3L53,58.7l0-26.8C53,31.9,29.8,45.3,29.8,45.3z"/>
	<path class="st2" d="M53,58.7l23.2,13.4l0-26.8C76.2,45.3,53,58.7,53,58.7z"/>
	<path class="st0" d="M29.8,18.5L53,31.9l0-26.8C53,5.1,29.8,18.5,29.8,18.5z"/>
	<path class="st1" d="M53,31.9l23.2,13.4l0-26.8C76.2,18.5,53,31.9,53,31.9z"/>
	<path class="st3" d="M76.2,45.3l23.2,13.4l0-26.8C99.4,31.9,76.2,45.3,76.2,45.3z"/>
	<path class="st4" d="M6.6,58.7l23.2,13.4l0-26.8C29.8,45.3,6.6,58.7,6.6,58.7z"/>
	<path class="st4" d="M29.8,72.1L53,85.5l0-26.8C53,58.7,29.8,72.1,29.8,72.1z"/>
	<path class="st5" d="M6.6,85.5l23.2,13.4l0-26.8C29.8,72.1,6.6,85.5,6.6,85.5z"/>
	<path class="st5" d="M29.8,98.9L53,112.3l0-26.8C53,85.5,29.8,98.9,29.8,98.9z"/>
	<path class="st2" d="M53,85.5l23.2,13.4l0-26.8C76.2,72.1,53,85.5,53,85.5z"/>
	<path class="st3" d="M76.2,72.1l23.2,13.4l0-26.8L76.2,72.1L76.2,72.1z"/>
	<path class="st6" d="M53,5.1v26.8l23.2-13.4C76.2,18.5,53,5.1,53,5.1z"/>
	<path class="st6" d="M76.2,18.5v26.8l23.2-13.4C99.4,31.9,76.2,18.5,76.2,18.5z"/>
	<path class="st7" d="M29.8,18.5v26.8L53,31.9L29.8,18.5L29.8,18.5z"/>
	<path class="st8" d="M29.8,45.3v26.8L53,58.7L29.8,45.3L29.8,45.3z"/>
	<path class="st8" d="M29.8,72.1v26.8L53,85.5L29.8,72.1L29.8,72.1z"/>
	<path class="st9" d="M6.6,31.9v26.8l23.2-13.4C29.8,45.3,6.6,31.9,6.6,31.9z"/>
	<path class="st9" d="M6.6,58.7v26.8l23.2-13.4L6.6,58.7z"/>
	<path class="st7" d="M53,31.9v26.8l23.2-13.4C76.2,45.3,53,31.9,53,31.9z"/>
	<path class="st10" d="M53,58.7v26.8l23.2-13.4L53,58.7z"/>
	<path class="st11" d="M53,85.5v26.8l23.2-13.4C76.2,98.9,53,85.5,53,85.5z"/>
	<path class="st10" d="M76.2,45.3v26.8l23.2-13.4C99.4,58.7,76.2,45.3,76.2,45.3z"/>
	<path class="st11" d="M76.2,72.1v26.8l23.2-13.4L76.2,72.1L76.2,72.1z"/>
</g>
<g>
	<path class="st12" d="M166.2,65.6v0.6h-11.6l-3.4-8.2h-22.1l-3.3,8.2h-11.6v-0.6l20.4-46.7h11.3L166.2,65.6z M147.4,48.6l-7.2-17.8
		l-7.3,17.8H147.4z"/>
	<path class="st12" d="M217.3,42.5c0,13.5-10.6,23.7-24.7,23.7h-19.3h-0.7V18.9h10.8h9.1C206.7,18.9,217.3,29.1,217.3,42.5z
		 M206.5,42.5c0-8-5.7-13.7-13.9-13.7h-9.1v27.3h9.1C200.7,56.2,206.5,50.6,206.5,42.5z"/>
	<path class="st12" d="M275.1,18.9v47.3h-10.8V36.7L250.6,55h-0.9l-13.7-18.3v29.5h-10.8V18.9h9.1L250.1,40L266,18.9H275.1z"/>
	<path class="st12" d="M295.1,18.9v47.3h-10.8V18.9H295.1z"/>
	<path class="st12" d="M348.2,18.9v47.3h-9.5L315,36.8v29.4h-10.8V18.9h9.5l23.7,29.4V18.9H348.2z"/>
</g>
<g>
	<path class="st12" d="M118.9,77.2v20.9h-4.8V77.2H118.9z"/>
	<path class="st12" d="M143.2,77.2v20.9h-4.2l-10.4-13v13h-4.8V77.2h4.2l10.4,13v-13H143.2z"/>
	<path class="st12" d="M165.5,81.6h-7.2v16.5h-4.8V81.6h-7.2v-4.4h11.9h7.2V81.6z"/>
	<path class="st12" d="M185.7,93.7v4.4h-16h-1V77.2h4.8h11.9v4.4h-11.9v3.8h7.6v4.4h-7.6v3.8H185.7z"/>
	<path class="st12" d="M205.9,93.7v4.4h-14.8h-1.6V77.2h4.8v16.5H205.9z"/>
	<path class="st12" d="M225.8,93.7v4.4h-14.8h-1.6V77.2h4.8v16.5H225.8z"/>
	<path class="st12" d="M234.1,77.2v20.9h-4.8V77.2H234.1z"/>
	<path class="st12" d="M258.9,86.3v3.9v4.4c-2.2,2.4-5.4,3.8-9.3,3.8c-7.4,0-11.6-4.9-11.6-10.8c0-6,4.3-10.9,11.1-10.9
		c4.4,0,7.8,2.1,9.4,5.4l-4.1,2.1c-0.8-1.7-2.5-3.1-5.3-3.1c-4,0-6.4,2.7-6.4,6.5c0,3.7,2.3,6.5,6.9,6.5c1.8,0,3.4-0.4,4.8-1.5v-2.5
		h-5v-3.9H258.9z"/>
	<path class="st12" d="M280.1,93.7v4.4h-16h-1V77.2h4.8h11.9v4.4h-11.9v3.8h7.6v4.4h-7.6v3.8H280.1z"/>
	<path class="st12" d="M303.3,77.2v20.9h-4.2l-10.4-13v13h-4.8V77.2h4.2l10.4,13v-13H303.3z"/>
	<path class="st12" d="M307.2,87.7c0-6,4.1-10.8,10.8-10.8c4.4,0,7.9,2.2,9.4,5.4l-4,2.3c-0.8-1.9-2.8-3.2-5.3-3.2
		c-3.9,0-6.1,2.8-6.1,6.4s2.3,6.4,6.1,6.4c2.6,0,4.5-1.3,5.4-3.2l4,2.3c-1.5,3.2-5,5.4-9.4,5.4C311.4,98.5,307.2,93.6,307.2,87.7z"
		/>
	<path class="st12" d="M348,93.7v4.4h-16h-1V77.2h4.8l12.3,0v4.4l-12.3,0v3.8h7.6v4.4h-7.6v3.8H348z"/>
</g>
</svg>
